<?xml version="1.0" encoding="UTF-8"?>
<!DOCTYPE svg PUBLIC "-//W3C//DTD SVG 1.1//EN" "http://www.w3.org/Graphics/SVG/1.1/DTD/svg11.dtd">
<!-- Creator: CorelDRAW 2019 (64-Bit) -->
<svg xmlns="http://www.w3.org/2000/svg" xml:space="preserve" width="67.429mm" height="84.924mm" version="1.1" style="shape-rendering:geometricPrecision; text-rendering:geometricPrecision; image-rendering:optimizeQuality; fill-rule:evenodd; clip-rule:evenodd"
viewBox="0 0 6742.9 8492.4"
 xmlns:xlink="http://www.w3.org/1999/xlink">
 <defs>
  <style type="text/css">
   <![CDATA[
    .str0 {stroke:#4B4B4D;stroke-width:20;stroke-miterlimit:22.9256;stroke-opacity:0.168627}
    .fil2 {fill:#FFF212}
    .fil4 {fill:#FEFEFE;fill-rule:nonzero}
    .fil3 {fill:#FFF212;fill-rule:nonzero}
    .fil0 {fill:#4B4B4D;fill-opacity:0.168627}
    .fil1 {fill:#4B4B4D;fill-rule:nonzero;fill-opacity:0.168627}
   ]]>
  </style>
 </defs>
 <g id="Capa_x0020_1">
  <metadata id="CorelCorpID_0Corel-Layer"/>
  <g id="_2526899350272">
   <g>
    <g>
     <path class="fil0 str0" d="M6358.04 1584.77c147.31,-4.62 270.5,111.01 275.16,258.32 4.62,147.34 -111.04,270.56 -258.35,275.19 -147.35,4.62 -270.53,-111.08 -275.16,-258.39 -4.62,-147.27 111.05,-270.46 258.35,-275.12z"/>
     <path class="fil0 str0" d="M3359.79 91.46c217.53,-6.83 399.46,164.04 406.32,381.53 6.83,217.57 -164,399.47 -381.54,406.36 -217.56,6.83 -399.46,-164.04 -406.32,-381.54 -6.83,-217.56 163.97,-399.46 381.54,-406.35z"/>
     <path class="fil0 str0" d="M1712.9 1250.53c121.37,-3.85 222.85,91.44 226.67,212.8 3.81,121.41 -91.48,222.89 -212.84,226.71 -121.37,3.81 -222.89,-91.47 -226.71,-212.84 -3.81,-121.41 91.51,-222.86 212.88,-226.67z"/>
     <path class="fil0 str0" d="M5053.1 1068.88c121.37,-3.82 222.85,91.47 226.67,212.84 3.85,121.4 -91.48,222.85 -212.84,226.67 -121.37,3.81 -222.86,-91.47 -226.71,-212.81 -3.81,-121.4 91.51,-222.89 212.88,-226.7z"/>
     <path class="fil1 str0" d="M3015.71 545.98c-52.06,-220.64 142.51,-456.94 371.73,-434.36 214.53,15.19 374.16,247.39 314.82,453.76 -19.85,131.87 -132.78,214.06 -238.82,277.81 31.19,622.87 411.79,1233.5 991.39,1484.36 282.93,-191.46 484.11,-507.81 552.62,-843.25 -82.23,-86.85 -126.3,-198.83 -68.61,-312.47 96.69,-32.41 254.64,-37.77 261.46,100.68 39.21,127.08 -108.2,165.65 -166.49,247.43 -24.01,367.54 213.05,732.2 545.12,879.51 231.92,-36.69 446.87,-166.42 618.64,-324.16 -53.42,-92.7 -119.33,-201.15 -72.71,-311.11 47.79,-152.56 274.6,-206.89 382.17,-89.41 93.75,70.72 74.78,204.65 55.59,305.79 -65.35,146.99 -300.7,74.04 -343.06,240.18 -206.68,457.71 -381.47,928.52 -569.25,1393.93 -29.68,69.63 -65.6,165.16 -157.67,160.23 -128.68,-11.27 -241.86,-82.27 -362.77,-122.35 -390.4,-159.49 -804.39,-264.86 -1225.8,-291.33 -491.35,-11.86 -985.79,62.04 -1451.06,221.6 -214.35,81.63 -442.31,178.25 -580.73,370.54 -74.6,102.92 -80.27,277.78 37.18,352.31 158.41,101.41 357.66,52.51 526.85,8.68 396.56,-118.39 768.15,-307.67 1165.62,-424.52 503.26,-162.37 1091.09,-215.26 1563.16,65.46 -162.79,-42.08 -321.16,-101.63 -488.24,-123.26 -343.24,-55.03 -692.16,13.02 -1018.73,119.79 -434.02,139.47 -835.05,366.56 -1273.16,493.77 -234.72,66.55 -505.19,87.48 -717.89,-53.59 -257.23,-163.69 -350.06,-469.23 -476.23,-729.75 -209.16,-450.89 -390.22,-916.27 -629.17,-1352.98 -76.46,-9.13 -159.46,-3.22 -227.02,-45.44 -170.9,-102.25 -145.42,-411.43 51.88,-468.56 130.92,-50.06 282.33,38.72 312.61,172.72 33.81,101.63 -44.18,201.32 -23.25,300.85 179.94,126.79 382,219.81 594.84,274.8 305.89,-185.53 508.37,-526.39 491.18,-888.5 130.57,295.63 324.79,560.21 587.48,751.94 566.62,-279.46 923.9,-910 916.2,-1536.55 -93.75,-98.89 -232.34,-174.44 -249.88,-324.55zm-364.32 1815.14l0 0c-460.34,329.09 -1090.56,389.94 -1609.96,170.69 -134.25,-56.61 -251.73,-146.08 -385.98,-202.69 244.42,558.18 569.21,1078.7 834,1627.6 222.57,-360.53 642.34,-505.84 1035.88,-588.99 941.4,-209.72 1968.4,-145.97 2834.78,299.14 50.9,25.69 108.27,33.81 164.04,43.69 183.89,-391.66 325.04,-801.34 500.53,-1196.81 49.11,-109.65 96.12,-220.37 132.29,-334.91 -152.84,89.61 -287.76,209.83 -453.27,277.95 -387.53,181.89 -850.7,157.53 -1236.61,-16.21 -578.42,-252.12 -1004.52,-822.8 -1077.27,-1450.61 -42.46,532.46 -290.69,1063.12 -738.43,1371.15z"/>
     <path class="fil1 str0" d="M1663.71 1270.76c190.79,-80.97 297.14,247.74 105.27,306.77 -184.77,74.53 -291.68,-243.83 -105.27,-306.77z"/>
    </g>
    <path class="fil1 str0" d="M324.36 7035.28c-67.29,-96.65 -120.57,-193.58 -159.84,-290.8 -34.87,-106.66 -50.87,-209.02 -52.86,-307.01 -7.6,-377.89 186.23,-717.81 576.73,-1029.05 390.54,-306.56 854.09,-465.21 1385.92,-475.88 219.24,-4.42 439.09,19.18 650.18,70.92 211.16,56.43 422.84,140.87 630.57,258l-431.84 340.09c-132.26,-76.7 -264.2,-139.4 -386.61,-192.92 -122.42,-53.56 -249.36,-97.67 -371.46,-137.19 -234.69,-65.33 -440.7,-98.51 -627.32,-94.77 -317.27,6.37 -558.08,99.88 -717.71,285.13 -164.29,185.33 -243.86,406.25 -238.71,662.89 3.29,163.27 39.03,316.56 102.61,459.99 68.01,133.97 187.46,271.58 362.98,412.73 170.87,141.25 355.11,249.56 557.17,320.17 202.23,75.3 384.93,108.94 557.55,105.47 83.98,-1.68 158.51,-7.84 219,-18.38 60.46,-10.57 116.05,-30.35 162.22,-54.61 97.15,-43.93 170.83,-92.1 230.56,-139.99l-10.51 -522.54 461.32 -270.6 21.74 1082.37c4.13,205.28 -71.69,379.47 -227.61,517.92 -155.85,143.18 -316.67,267.77 -482.57,373.8 100.29,-118.74 162.71,-264.65 196.56,-438.04 33.85,-173.35 49.33,-332.35 46.25,-486.31l-1.61 -79.32 -1.12 -55.98c-123.72,114.51 -271.34,201.5 -452.05,265.81 -180.73,64.3 -366.8,96.02 -553.38,99.77 -284.61,5.74 -556.43,-49.47 -810.69,-161.04 -258.94,-111.46 -467.69,-279.94 -635.47,-500.63zm3669.75 1457.09l-52.54 -2612.59c-3.02,-149.3 -46.88,-241.75 -131.49,-272.74 -79.89,-26.39 -164.15,-38.71 -248.13,-37.03 132.33,-152 274.04,-299.52 420.57,-437.83 137.44,-128.76 234.27,-186.73 285.9,-173.77 37.5,8.61 66.27,45.33 86.33,114.96l41.34 199.85c114.68,-100.33 280.86,-192.33 507.74,-280.93 226.95,-88.53 450.01,-135.05 673.95,-139.54 251.94,-5.07 467.65,46.6 656.55,154.84 184.28,112.93 313.8,287.72 388.68,528.88 34.97,116.01 65.25,227.4 85.94,329.66 20.73,102.29 31.96,195.41 33.64,279.35 5.15,256.6 -51.18,472.42 -173.67,647.59 -122.41,179.8 -287.19,341.81 -484.98,485.79 -202.37,148.74 -382.41,245.71 -540.01,300.25 -162.47,45.23 -311.35,66.94 -456,69.84 -149.27,3.01 -270.78,-3.92 -369.22,-25.27 -98.5,-26.01 -154.8,-38.86 -168.9,-43.24 -18.73,-4.34 -56.33,-17.57 -108.14,-39.87l12.57 625.19 -460.13 326.61zm405.73 -3032.56l31.5 1567.56c1.79,88.67 106.14,170.59 312.82,236.44 206.75,70.5 431.43,103.34 669.4,98.54 79.33,-1.57 135.27,-2.69 177.17,-8.23 41.87,-5.49 93.05,-15.85 162.71,-31.26 106.95,-20.83 204.06,-64.79 291.5,-127.21 92.18,-57.87 164.96,-152.7 218.31,-284.43 53.38,-131.73 78.38,-281.63 74.98,-449.56 -3.85,-191.31 -49.67,-381.71 -132.92,-576.07 -87.87,-189.56 -198.31,-346.04 -326.61,-460.16 -128.34,-114.09 -260.56,-190.75 -392.04,-230.13 -131.45,-39.39 -262.48,-55.42 -393.09,-52.79 -172.62,3.46 -335.26,39.41 -478.69,102.99 -143.31,68.19 -216.55,139.71 -215.04,214.31z"/>
   </g>
   <g>
    <g>
     <path class="fil2" d="M6213.02 2095.27c-34.09,16.02 -60.38,38.72 -70.52,78.51 -0.53,2.12 -1.16,3.86 -2.05,5.85 -206.42,457.14 -381.07,927.63 -568.94,1393.25 -36.58,85.77 -80.13,187.74 -193.42,181.65 -134.76,-11.8 -245.69,-82.54 -370.86,-124.01 -0.79,-0.27 -1.48,-0.52 -2.26,-0.84 -386.68,-157.98 -796.63,-262.51 -1213.55,-288.72 -487.29,-11.77 -977.11,61.54 -1437.23,219.3 -206.74,78.74 -430.83,172.8 -564.58,358.15 -62.12,86.1 -72.05,238.12 27.48,301.61 147.87,94.3 341.21,45.08 497.92,4.5 396.73,-118.44 767.88,-307.6 1164.57,-424.21 513.09,-165.54 1110.62,-217.64 1592.19,68.74 15.29,9.1 21.46,27.74 14.62,44.17 -6.84,16.41 -24.43,25.16 -41.65,20.71 -160.64,-41.52 -318.76,-101.03 -484.97,-122.57 -337.41,-54.1 -681.06,14.54 -1002.17,118.5 -434.02,140.51 -834.88,367.58 -1274.28,494.11 -244.6,70.44 -525.86,88.78 -746.76,-57.75 -266.13,-169.36 -361.98,-474.5 -489.28,-744.58 -209.07,-443.57 -385.13,-903.32 -619.35,-1334.79 -77.63,-7.42 -153.47,-4.86 -222.97,-48.29 -196.73,-117.71 -167.28,-465.81 58.81,-532.71 149.81,-56.26 322.24,42.77 358.14,196.89 35.57,109.95 -35.32,200.11 -24.88,289.83 169.09,117.05 357.9,204.03 556.55,257.14 267.23,-167.72 451.5,-463.35 461.91,-779.89 -140.35,3.92 -258,-106.79 -262.42,-247.24 -4.41,-140.77 106.5,-258.8 247.25,-263.26 140.74,-4.45 258.84,106.43 263.27,247.17 3.35,106.76 -59.63,200.5 -151.66,241.49 124.09,258.12 299.48,488.99 529.57,661.85 537.48,-275.19 877.04,-875.81 877.26,-1474.63 -162.59,-57.14 -281.71,-209.71 -287.45,-392 -7.44,-236.79 179.11,-435.49 415.91,-442.96 236.75,-7.47 435.46,179.15 442.92,415.9 6.15,196.14 -120.8,366.16 -299.14,422.99 48.37,584.17 407.92,1149.35 948.56,1392.2 254.3,-178.5 437.59,-461.17 511.07,-762.59 -89.65,-37.38 -154.09,-124.54 -157.35,-227.77 -4.44,-140.75 106.49,-258.87 247.24,-263.3 140.75,-4.42 258.84,106.45 263.28,247.21 4.45,140.72 -106.41,258.78 -247.11,263.27 -2.01,55.43 2.13,111.05 11.85,165.66 49.8,279.26 245.74,534.61 503.76,653.15 211.98,-36.24 408.9,-152.91 568.79,-294.57 -1.37,-2.41 -2.74,-4.82 -4.1,-7.25 -50.07,-52.09 -81.8,-122.13 -84.23,-199.87 -5.23,-166.61 126.1,-306.45 292.71,-311.7 166.63,-5.24 306.5,126.03 311.75,292.67 5.24,166.64 -126.05,306.56 -292.72,311.79 -17.5,0.54 -34.7,-0.41 -51.48,-2.76zm-5597.25 251.77c230.67,506.52 521.63,983.17 766.94,1482.57 235.24,-331.51 640.23,-468.18 1023.56,-552.28 283.73,-62.24 573.27,-100.07 863.56,-111.15 686.76,-26.17 1380.85,98.14 1995.02,413.37 38.68,19.86 83.71,28.24 127.13,35.7 178.24,-384 316.84,-784.9 488.8,-1171.65 34.73,-78.13 68.78,-156.76 98.47,-236.98 -121.48,80.51 -235.91,170.47 -372.7,226.95 -396.88,185.96 -869.63,158.47 -1265.26,-16.24 -519.43,-229.37 -919.6,-706.99 -1057.43,-1256.33 -87.22,463.81 -329.96,902.69 -723.28,1173.26 -470.3,336.23 -1113.53,398.56 -1644.41,174.53 -105.23,-44.41 -199.99,-108.78 -300.4,-161.75z"/>
    </g>
    <g>
     <path class="fil2" d="M6246.59 1529.04c147.3,-4.62 270.49,111.01 275.15,258.32 4.62,147.34 -111.04,270.57 -258.35,275.19 -147.34,4.62 -270.53,-111.08 -275.15,-258.39 -4.62,-147.27 111.04,-270.46 258.35,-275.12z"/>
     <path class="fil2" d="M3248.33 35.73c217.53,-6.83 399.46,164.04 406.32,381.54 6.83,217.56 -164,399.46 -381.53,406.35 -217.57,6.83 -399.47,-164.04 -406.33,-381.53 -6.82,-217.57 163.97,-399.47 381.54,-406.36z"/>
     <path class="fil2" d="M1601.44 1194.8c121.37,-3.85 222.85,91.44 226.67,212.81 3.81,121.4 -91.47,222.88 -212.84,226.7 -121.37,3.81 -222.89,-91.47 -226.71,-212.84 -3.81,-121.41 91.51,-222.85 212.88,-226.67z"/>
     <path class="fil2" d="M4941.64 1013.15c121.37,-3.82 222.85,91.47 226.67,212.84 3.85,121.4 -91.47,222.85 -212.84,226.67 -121.37,3.81 -222.85,-91.47 -226.7,-212.81 -3.82,-121.4 91.5,-222.88 212.87,-226.7z"/>
     <path class="fil3" d="M2904.25 490.25c-52.06,-220.64 142.51,-456.94 371.74,-434.36 214.52,15.19 374.15,247.39 314.81,453.76 -19.85,131.87 -132.78,214.06 -238.81,277.81 31.19,622.88 411.78,1233.5 991.39,1484.36 282.92,-191.46 484.1,-507.81 552.61,-843.25 -82.23,-86.85 -126.3,-198.83 -68.61,-312.47 96.69,-32.41 254.64,-37.77 261.46,100.68 39.21,127.08 -108.2,165.66 -166.49,247.43 -24.01,367.54 213.05,732.2 545.13,879.51 231.92,-36.69 446.86,-166.42 618.64,-324.16 -53.42,-92.7 -119.34,-201.15 -72.71,-311.11 47.78,-152.56 274.59,-206.89 382.16,-89.4 93.75,70.71 74.78,204.65 55.6,305.78 -65.36,146.99 -300.71,74.04 -343.07,240.18 -206.68,457.71 -381.47,928.52 -569.24,1393.93 -29.69,69.63 -65.61,165.17 -157.67,160.23 -128.69,-11.27 -241.87,-82.27 -362.78,-122.35 -390.39,-159.49 -804.38,-264.86 -1225.79,-291.33 -491.36,-11.86 -985.79,62.04 -1451.07,221.6 -214.34,81.63 -442.31,178.25 -580.72,370.54 -74.6,102.92 -80.28,277.78 37.17,352.31 158.41,101.42 357.67,52.51 526.85,8.68 396.56,-118.39 768.16,-307.67 1165.62,-424.52 503.26,-162.36 1091.09,-215.26 1563.16,65.46 -162.78,-42.08 -321.15,-101.63 -488.24,-123.26 -343.24,-55.03 -692.15,13.02 -1018.73,119.79 -434.02,139.47 -835.05,366.56 -1273.16,493.77 -234.72,66.55 -505.18,87.48 -717.88,-53.59 -257.23,-163.69 -350.07,-469.23 -476.24,-729.75 -209.16,-450.89 -390.22,-916.27 -629.17,-1352.98 -76.46,-9.13 -159.46,-3.22 -227.02,-45.44 -170.9,-102.25 -145.42,-411.43 51.88,-468.56 130.93,-50.06 282.33,38.72 312.61,172.72 33.82,101.63 -44.18,201.33 -23.24,300.85 179.93,126.79 381.99,219.81 594.83,274.8 305.89,-185.53 508.37,-526.39 491.18,-888.5 130.57,295.63 324.79,560.21 587.48,751.94 566.62,-279.46 923.9,-910 916.2,-1536.55 -93.75,-98.89 -232.34,-174.44 -249.88,-324.55zm-364.32 1815.14l0 0c-460.33,329.1 -1090.56,389.94 -1609.95,170.69 -134.25,-56.61 -251.74,-146.08 -385.99,-202.69 244.42,558.18 569.21,1078.7 834,1627.6 222.57,-360.53 642.34,-505.84 1035.89,-588.98 941.4,-209.73 1968.39,-145.98 2834.77,299.13 50.9,25.69 108.28,33.81 164.04,43.69 183.89,-391.66 325.04,-801.34 500.53,-1196.81 49.11,-109.64 96.13,-220.37 132.29,-334.91 -152.84,89.62 -287.76,209.83 -453.27,277.95 -387.52,181.9 -850.7,157.53 -1236.61,-16.21 -578.42,-252.12 -1004.52,-822.79 -1077.26,-1450.61 -42.47,532.46 -290.7,1063.12 -738.44,1371.15z"/>
     <path class="fil3" d="M1552.26 1215.03c190.78,-80.97 297.13,247.75 105.26,306.77 -184.76,74.53 -291.68,-243.82 -105.26,-306.77z"/>
    </g>
    <path class="fil4" d="M212.9 6979.55c-67.28,-96.65 -120.56,-193.58 -159.84,-290.8 -34.87,-106.66 -50.87,-209.02 -52.86,-307 -7.6,-377.9 186.23,-717.82 576.73,-1029.06 390.54,-306.56 854.1,-465.21 1385.92,-475.88 219.25,-4.41 439.09,19.18 650.18,70.92 211.16,56.43 422.85,140.87 630.57,258l-431.84 340.09c-132.25,-76.7 -264.19,-139.4 -386.61,-192.92 -122.42,-53.56 -249.35,-97.67 -371.46,-137.19 -234.68,-65.33 -440.7,-98.51 -627.32,-94.77 -317.26,6.37 -558.08,99.88 -717.71,285.13 -164.28,185.33 -243.85,406.26 -238.71,662.89 3.29,163.27 39.04,316.57 102.61,459.99 68.02,133.97 187.46,271.58 362.98,412.73 170.87,141.25 355.11,249.56 557.17,320.17 202.23,75.3 384.93,108.94 557.55,105.47 83.98,-1.68 158.51,-7.84 219,-18.37 60.46,-10.58 116.05,-30.36 162.22,-54.61 97.15,-43.94 170.84,-92.11 230.56,-140l-10.5 -522.54 461.31 -270.6 21.74 1082.37c4.13,205.28 -71.69,379.47 -227.61,517.92 -155.85,143.18 -316.67,267.77 -482.57,373.81 100.3,-118.75 162.71,-264.66 196.57,-438.04 33.85,-173.36 49.32,-332.36 46.24,-486.32l-1.61 -79.32 -1.12 -55.98c-123.71,114.51 -271.34,201.5 -452.04,265.81 -180.74,64.31 -366.8,96.02 -553.39,99.77 -284.6,5.74 -556.43,-49.47 -810.68,-161.03 -258.95,-111.47 -467.69,-279.95 -635.48,-500.64zm3669.75 1457.09l-52.54 -2612.59c-3.01,-149.3 -46.88,-241.75 -131.49,-272.73 -79.88,-26.4 -164.14,-38.72 -248.13,-37.04 132.33,-152 274.04,-299.52 420.58,-437.83 137.43,-128.76 234.26,-186.73 285.9,-173.77 37.49,8.61 66.26,45.33 86.32,114.96l41.34 199.85c114.69,-100.33 280.86,-192.33 507.74,-280.93 226.95,-88.53 450.01,-135.05 673.95,-139.53 251.94,-5.08 467.66,46.59 656.55,154.83 184.28,112.93 313.8,287.72 388.68,528.88 34.97,116.01 65.25,227.41 85.94,329.66 20.73,102.29 31.96,195.41 33.65,279.35 5.14,256.6 -51.18,472.42 -173.67,647.59 -122.42,179.8 -287.2,341.81 -484.99,485.79 -202.37,148.75 -382.41,245.71 -540.01,300.25 -162.47,45.23 -311.35,66.94 -456,69.84 -149.27,3.01 -270.77,-3.92 -369.21,-25.27 -98.51,-26.01 -154.8,-38.86 -168.91,-43.24 -18.73,-4.34 -56.33,-17.57 -108.14,-39.87l12.57 625.19 -460.13 326.61zm405.73 -3032.56l31.51 1567.56c1.78,88.68 106.14,170.59 312.82,236.44 206.75,70.5 431.42,103.34 669.4,98.54 79.32,-1.57 135.26,-2.69 177.16,-8.22 41.87,-5.5 93.05,-15.86 162.72,-31.26 106.94,-20.83 204.05,-64.8 291.5,-127.22 92.17,-57.87 164.95,-152.7 218.3,-284.43 53.38,-131.73 78.38,-281.63 74.98,-449.56 -3.85,-191.31 -49.67,-381.71 -132.92,-576.07 -87.86,-189.56 -198.31,-346.04 -326.61,-460.16 -128.34,-114.09 -260.56,-190.75 -392.04,-230.13 -131.45,-39.39 -262.48,-55.42 -393.09,-52.79 -172.62,3.46 -335.26,39.41 -478.68,102.99 -143.32,68.19 -216.55,139.71 -215.05,214.31z"/>
   </g>
  </g>
 </g>
</svg>
